<svg height="512" viewBox="0 0 61 60" width="512" xmlns="http://www.w3.org/2000/svg"><g id="Page-1" fill="none" fill-rule="evenodd"><g id="023---Garden-Path" fill="rgb(0,0,0)" fill-rule="nonzero" transform="translate(0 -1)"><path id="Shape" d="m59.11 26.7c-1.9128757-.2334213-3.8121618-.567215-5.69-1 1.0893915-1.6972075 1.6401569-3.6841458 1.58-5.7 0-3.81-3.22-13.14-5.32-17.34-.5094696-1.0127539-1.5463203-1.65181604-2.68-1.65181604s-2.1705304.63906214-2.68 1.65181604c-2.1 4.2-5.32 13.53-5.32 17.34.0004379.8840818.0942923 1.7656427.28 2.63-.81-.11-1.61-.21-2.41-.29.0882809-.4411591.1318347-.8900984.13-1.34 0-3.8659932-3.1340068-7-7-7s-7 3.1340068-7 7c-.0028076.4499462.0407558.8989842.13 1.34-.82.08-1.62.18-2.4.29.1844609-.8643835.2749862-1.7461676.27-2.63 0-3.8-3.22-13.13-5.32-17.34-.5074905-1.01824354-1.5472977-1.66180158-2.685-1.66180158s-2.1775095.64355804-2.685 1.66180158c-1.20641331 2.5611112-2.24852171 5.19644302-3.12 7.89-.48635307.3199457-.87687055.7657577-1.13 1.29-2.39 4.85-6.06 15.7-6.06 19.93 0 5.65 2.89 8.8 6.35 9.84-.05487665 1.3573364-.4614951 2.6771234-1.18 3.83-.14885336.2200282-.20404171.4902421-.15338746.7510177s.20298778.4906795.42338746.6389823c.16553735.1112428.36055731.1704453.56.17.33262608.0005011.64372956-.1644212.83-.44.87144726-1.3716003 1.38700884-2.9389075 1.5-4.56h.67.67c.1080614 1.6314086.6238143 3.2096124 1.5 4.59.1929419.2642097.5029227.4173327.83.41.1994427.0004453.3944627-.0587572.56-.17.2203997-.1483028.3727332-.3782067.4233875-.6389823.0506542-.2607756-.0045341-.5309895-.1533875-.7510177-.7185049-1.1528766-1.1251234-2.4726636-1.18-3.83 3.46-1 6.35-4.19 6.35-9.84-.0557899-1.372736-.2501097-2.736325-.58-4.07 1.1081279-.7308564 1.9992607-1.7463333 2.58-2.94 2.2348521-.3578128 4.4886855-.5848656 6.75-.68-4.48 2.6-6.75 5.26-6.75 7.92 0 3.66 4.57 6 8.61 8.11 1.65.86 4.14 2.14 4.32 2.67-.1148385.1543498-.2659663.2779999-.44.36-1.9574023.9529527-4.0083785 1.7002855-6.12 2.23-6.63 2-15.73 4.76-21.17 12.48-.42491047.6076292-.47879277 1.4004687-.14 2.06.34166334.6686778 1.02909145 1.0896309 1.78 1.09h23.4c.7374151.0010818 1.4493969-.2694713 2-.76 3.1058962-2.5483249 6.5315845-4.6797149 10.19-6.34 7.42-3.55 10.94-6.9 10.75-10.35-.27-5.26-9.09-8.38-15.52-10.66-.85-.3-1.63-.57-2.31-.83-1.42-.53-2.23-1.24-2.41-2.11-.28-1.37.84-3.43 3.08-5.69 1.32.12 2.64.28 4 .5.8557726 1.7667502 2.3768044 3.1223743 4.23 3.77.018264 1.3794036-.3563189 2.7355326-1.08 3.91-.1488534.2200282-.2040417.4902421-.1533875.7510177.0506543.2607756.2029878.4906795.4233875.6389823.1655373.1112428.3605573.1704453.56.17.3326261.0005011.6437296-.1644212.83-.44.8718348-1.3653978 1.3589663-2.9408019 1.41-4.56.5052632.0533333 1.0147368.0533333 1.52 0 .0438501 1.6328766.5312676 3.2230329 1.41 4.6.1951044.2604376.5047304.409655.83.4.1994427.0004453.3944627-.0587572.56-.17.2203997-.1483028.3727332-.3782067.4233875-.6389823.0506542-.2607756-.0045341-.5309895-.1533875-.7510177-.7236811-1.1744674-1.098264-2.5305964-1.08-3.91.7482141-.2609546 1.4502779-.6389889 2.08-1.12 2.3245917.5699334 4.682517.9940927 7.06 1.27h.11c.5522847.0303756 1.0246243-.3927153 1.0549999-.945.0303757-.5522847-.3927152-1.0246243-.9449999-1.055zm-50.11 13.3c-4.25 0-7-3.23-7-8.23 0-3.9 3.59-14.47 5.85-19 .21472216-.4393391.66099643-.7179502 1.15-.7179502s.93527784.2786111 1.15.7179502c2.26 4.53 5.85 15.1 5.85 19 0 5-2.75 8.23-7 8.23zm2.94-28.16c-.458639-.9878003-1.3828701-1.6790951-2.46-1.84.7504326-2.19463995 1.6251808-4.34478438 2.62-6.44.1691635-.33941451.5157659-.55393386.895-.55393386s.7258365.21451935.895.55393386c1.97 3.95 5.11 13.09 5.11 16.44.1325647 2.0750823-.6322112 4.1072013-2.1 5.58-1.2584318-4.7130806-2.9178171-9.3098455-4.96-13.74zm13.06 9.16c0-2.7614237 2.2385763-5 5-5s5 2.2385763 5 5c-.0027331.3952624-.0565114.7885161-.16 1.17-1.23-.08-2.5-.14-3.8-.16h-1.04c-1.66 0-3.27.06-4.84.17-.1050238-.3845794-.1588219-.7813398-.16-1.18zm6 9.36c.33 1.58 1.57 2.79 3.67 3.58l2.34.84c5.23 1.85 14 4.95 14.2 8.88.09 1.71-1.51 4.56-9.62 8.44-3.8396176 1.7339954-7.4339107 3.9665591-10.69 6.64-.1808363.1644067-.4156198.2568972-.66.26h-23.41c5.05-7.16 13.76-9.79 20.17-11.71 2.2681225-.5703425 4.4676623-1.3851111 6.56-2.43.8244175-.3722215 1.369527-1.1763546 1.41-2.08-.05-1.68-2.29-2.84-5.39-4.44-3.41-1.74-7.58-3.9-7.58-6.34s3.36-5.26 9.22-8c.76 0 1.5 0 2.24.06-1.6 1.94-2.92 4.18-2.46 6.3zm10-10.36c0-3.13 2.92-12.06 5.11-16.44.171096-.33396622.5147571-.54403948.89-.54403948s.718904.21007326.89.54403948c2.19 4.38 5.11 13.31 5.11 16.44.1214059 2.0338405-.6022707 4.0275697-2 5.51l-.09.09c-.7086538.6296424-1.5710938 1.0608623-2.5 1.25-.4629261.1024833-.9358739.1527969-1.41.15-3.7 0-6-2.68-6-7z"/><path id="Shape" d="m47 23c-.55 0-2 0-2-3 0-.5522847-.4477153-1-1-1s-1 .4477153-1 1c0 3.18 1.46 5 4 5 .5522847 0 1-.4477153 1-1s-.4477153-1-1-1z"/><path id="Shape" d="m9 36c-2 0-3-1.42-3-4.23 0-.5522847-.44771525-1-1-1s-1 .4477153-1 1c0 3.9 1.87 6.23 5 6.23.55228475 0 1-.4477153 1-1s-.44771525-1-1-1z"/><circle id="Oval" cx="28" cy="56" r="1"/><circle id="Oval" cx="28" cy="50" r="1"/><circle id="Oval" cx="47" cy="42" r="1"/><circle id="Oval" cx="42" cy="40" r="1"/><circle id="Oval" cx="25" cy="32" r="1"/><circle id="Oval" cx="43" cy="43" r="1"/><path id="Shape" d="m31 11v-2c0-.55228475-.4477153-1-1-1s-1 .44771525-1 1v2c0 .5522847.4477153 1 1 1s1-.4477153 1-1z"/><path id="Shape" d="m25 13.34c.3579753.0014245.6894063-.1886117.8690104-.498274.1796041-.3096622.1799815-.6917095.0009896-1.001726l-1-1.73c-.2761424-.48048773-.8895123-.64614237-1.37-.37-.4804877.2761424-.6461424.8895123-.37 1.37l1 1.73c.179341.3106342.5113152.501424.87.5z"/><path id="Shape" d="m35 13.34c.3586848.001424.690659-.1893658.87-.5l1-1.73c.1786328-.3108211.1778752-.693331-.0019873-1.0034421-.1798625-.31011107-.5115047-.50070999-.87-.5s-.6893799.19262104-.8680127.5034421l-1 1.73c-.1789919.3100165-.1786145.6920638.0009896 1.001726.1796041.3096623.5110351.4996985.8690104.498274z"/></g></g></svg>